{
  "accessors": [
    {
      "bufferView": 2,
      "componentType": 5126,
      "count": 2468,
      "max": [
        0.90353482961654663,
        7.0270166397094727,
        1.5729944705963135
      ],
      "min": [
        -0.9071851372718811,
        -3.9418861865997314,
        -6.0484147071838379
      ],
      "type": "VEC3"
    },
    {
      "bufferView": 2,
      "byteOffset": 29616,
      "componentType": 5126,
      "count": 2468,
      "max": [
        0.99999988079071045,
        0.99999922513961792,
        0.99999922513961792
      ],
      "min": [
        -0.99999988079071045,
        -0.99999922513961792,
        -0.9999992847442627
      ],
      "type": "VEC3"
    },
    {
      "bufferView": 3,
      "componentType": 5126,
      "count": 2468,
      "max": [
        0.99999988079071045,
        0.99999994039535522,
        0.99999988079071045,
        1
      ],
      "min": [
        -1,
        -0.99999994039535522,
        -0.99999994039535522,
        -1
      ],
      "type": "VEC4"
    },
    {
      "bufferView": 1,
      "componentType": 5126,
      "count": 2468,
      "max": [
        1,
        1
      ],
      "min": [
        -8.9406967163085938e-08,
        -1.8189894035458565e-12
      ],
      "type": "VEC2"
    },
    {
      "bufferView": 0,
      "componentType": 5125,
      "count": 3774,
      "max": [
        2467
      ],
      "min": [
        0
      ],
      "type": "SCALAR"
    },
    {
      "bufferView": 2,
      "byteOffset": 59232,
      "componentType": 5126,
      "count": 1666,
      "max": [
        0.72358012199401855,
        2.7636692523956299,
        0.9532923698425293
      ],
      "min": [
        -0.72383773326873779,
        -1.6264147758483887,
        -1.6767693758010864
      ],
      "type": "VEC3"
    },
    {
      "bufferView": 2,
      "byteOffset": 79224,
      "componentType": 5126,
      "count": 1666,
      "max": [
        0.99999988079071045,
        0.99999922513961792,
        0.99999922513961792
      ],
      "min": [
        -0.99999988079071045,
        -0.99999922513961792,
        -0.99999916553497314
      ],
      "type": "VEC3"
    },
    {
      "bufferView": 3,
      "byteOffset": 39488,
      "componentType": 5126,
      "count": 1666,
      "max": [
        0.99999988079071045,
        0.99999916553497314,
        0.99999982118606567,
        1
      ],
      "min": [
        -0.99999988079071045,
        -0.99999916553497314,
        -0.99999916553497314,
        -1
      ],
      "type": "VEC4"
    },
    {
      "bufferView": 1,
      "byteOffset": 19744,
      "componentType": 5126,
      "count": 1666,
      "max": [
        1,
        1
      ],
      "min": [
        -8.9406967163085938e-08,
        0.01000000536441803
      ],
      "type": "VEC2"
    },
    {
      "bufferView": 0,
      "byteOffset": 15096,
      "componentType": 5125,
      "count": 10086,
      "max": [
        1665
      ],
      "min": [
        0
      ],
      "type": "SCALAR"
    },
    {
      "bufferView": 2,
      "byteOffset": 99216,
      "componentType": 5126,
      "count": 252,
      "max": [
        0.54467779397964478,
        0.82699704170227051,
        0.79003041982650757
      ],
      "min": [
        -0.95998197793960571,
        -0.8533250093460083,
        -1.6959292888641357
      ],
      "type": "VEC3"
    },
    {
      "bufferView": 2,
      "byteOffset": 102240,
      "componentType": 5126,
      "count": 252,
      "max": [
        0.99999988079071045,
        0.99999916553497314,
        0.99999922513961792
      ],
      "min": [
        -0.99999988079071045,
        -0.99999916553497314,
        -0.99479091167449951
      ],
      "type": "VEC3"
    },
    {
      "bufferView": 3,
      "byteOffset": 66144,
      "componentType": 5126,
      "count": 252,
      "max": [
        1,
        0.99479097127914429,
        0.99999922513961792,
        1
      ],
      "min": [
        -0.99999988079071045,
        -0.99999964237213135,
        -0.99479091167449951,
        -1
      ],
      "type": "VEC4"
    },
    {
      "bufferView": 1,
      "byteOffset": 33072,
      "componentType": 5126,
      "count": 252,
      "max": [
        1,
        1
      ],
      "min": [
        -8.9406967163085938e-08,
        0
      ],
      "type": "VEC2"
    },
    {
      "bufferView": 0,
      "byteOffset": 55440,
      "componentType": 5125,
      "count": 402,
      "max": [
        251
      ],
      "min": [
        0
      ],
      "type": "SCALAR"
    },
    {
      "bufferView": 2,
      "byteOffset": 105264,
      "componentType": 5126,
      "count": 1972,
      "max": [
        0.92708045244216919,
        3.6630978584289551,
        1.5427030324935913
      ],
      "min": [
        -0.94607603549957275,
        -3.0200374126434326,
        -3.5919511318206787
      ],
      "type": "VEC3"
    },
    {
      "bufferView": 2,
      "byteOffset": 128928,
      "componentType": 5126,
      "count": 1972,
      "max": [
        0.99999988079071045,
        0.99999922513961792,
        0.99999922513961792
      ],
      "min": [
        -0.99999988079071045,
        -0.99999922513961792,
        -0.99999922513961792
      ],
      "type": "VEC3"
    },
    {
      "bufferView": 3,
      "byteOffset": 70176,
      "componentType": 5126,
      "count": 1972,
      "max": [
        0.99999988079071045,
        0.99999994039535522,
        0.99999994039535522,
        1
      ],
      "min": [
        -0.99999988079071045,
        -0.99999922513961792,
        -0.9999992847442627,
        -1
      ],
      "type": "VEC4"
    },
    {
      "bufferView": 1,
      "byteOffset": 35088,
      "componentType": 5126,
      "count": 1972,
      "max": [
        1,
        1
      ],
      "min": [
        -8.9406967163085938e-08,
        0
      ],
      "type": "VEC2"
    },
    {
      "bufferView": 0,
      "byteOffset": 57048,
      "componentType": 5125,
      "count": 3030,
      "max": [
        1971
      ],
      "min": [
        0
      ],
      "type": "SCALAR"
    },
    {
      "bufferView": 2,
      "byteOffset": 152592,
      "componentType": 5126,
      "count": 6350,
      "max": [
        0.9671558141708374,
        7.0760669708251953,
        1.6152393817901611
      ],
      "min": [
        -1.0020517110824585,
        -3.8947732448577881,
        -6.0805864334106445
      ],
      "type": "VEC3"
    },
    {
      "bufferView": 2,
      "byteOffset": 228792,
      "componentType": 5126,
      "count": 6350,
      "max": [
        1,
        0.9999997615814209,
        0.9999995231628418
      ],
      "min": [
        -0.99999994039535522,
        -0.99999994039535522,
        -0.99999994039535522
      ],
      "type": "VEC3"
    },
    {
      "bufferView": 3,
      "byteOffset": 101728,
      "componentType": 5126,
      "count": 6350,
      "max": [
        0.99999988079071045,
        0.99999922513961792,
        0.99999994039535522,
        1
      ],
      "min": [
        -0.99999994039535522,
        -0.99999922513961792,
        -0.9999992847442627,
        -1
      ],
      "type": "VEC4"
    },
    {
      "bufferView": 1,
      "byteOffset": 50864,
      "componentType": 5126,
      "count": 6350,
      "max": [
        1,
        1
      ],
      "min": [
        -8.9406967163085938e-08,
        -1.8189894035458565e-12
      ],
      "type": "VEC2"
    },
    {
      "bufferView": 0,
      "byteOffset": 69168,
      "componentType": 5125,
      "count": 17292,
      "max": [
        6349
      ],
      "min": [
        0
      ],
      "type": "SCALAR"
    }
  ],
  "asset": {
    "extras": {
      "author": "iedalton (https://sketchfab.com/iedalton)",
      "license": "CC-BY-4.0 (http://creativecommons.org/licenses/by/4.0/)",
      "source": "https://sketchfab.com/3d-models/mac-10-sub-machine-gun-8b87f75c6a474aaba5e66f71646ad517",
      "title": "Mac 10 Sub Machine Gun"
    },
    "generator": "Sketchfab-6.46.0",
    "version": "2.0"
  },
  "bufferViews": [
    {
      "buffer": 0,
      "byteLength": 138336,
      "byteOffset": 0,
      "name": "floatBufferViews",
      "target": 34963
    },
    {
      "buffer": 0,
      "byteLength": 101664,
      "byteOffset": 138336,
      "byteStride": 8,
      "name": "floatBufferViews",
      "target": 34962
    },
    {
      "buffer": 0,
      "byteLength": 304992,
      "byteOffset": 240000,
      "byteStride": 12,
      "name": "floatBufferViews",
      "target": 34962
    },
    {
      "buffer": 0,
      "byteLength": 203328,
      "byteOffset": 544992,
      "byteStride": 16,
      "name": "floatBufferViews",
      "target": 34962
    }
  ],
  "buffers": [
    {
      "byteLength": 748320,
      "uri": "scene.bin"
    }
  ],
  "materials": [
    {
      "doubleSided": true,
      "emissiveFactor": [
        0,
        0,
        0
      ],
      "name": "BlackMetal",
      "pbrMetallicRoughness": {
        "baseColorFactor": [
          0.0226974,
          0.023933200000000002,
          0.0262598,
          1
        ],
        "metallicFactor": 0,
        "roughnessFactor": 0.99466956065739687
      }
    },
    {
      "doubleSided": true,
      "emissiveFactor": [
        0,
        0,
        0
      ],
      "name": "BlackMetal.002",
      "pbrMetallicRoughness": {
        "baseColorFactor": [
          0.044461199999999999,
          0.047158499999999999,
          0.052304799999999999,
          1
        ],
        "metallicFactor": 0,
        "roughnessFactor": 0.98950018126629058
      }
    },
    {
      "doubleSided": true,
      "emissiveFactor": [
        0,
        0,
        0
      ],
      "name": "material",
      "pbrMetallicRoughness": {
        "baseColorFactor": [
          0.79999999999999993,
          0.0034930399999999993,
          0.00017578099999999961,
          1
        ],
        "metallicFactor": 0,
        "roughnessFactor": 0.96140749849001039
      }
    },
    {
      "doubleSided": true,
      "emissiveFactor": [
        0,
        0,
        0
      ],
      "name": "Metal02",
      "pbrMetallicRoughness": {
        "baseColorFactor": [
          0.161492,
          0.161492,
          0.161492,
          1
        ],
        "metallicFactor": 0,
        "roughnessFactor": 0.96388929101776044
      }
    },
    {
      "doubleSided": false,
      "emissiveFactor": [
        0,
        0,
        0
      ],
      "name": "Outline",
      "pbrMetallicRoughness": {
        "baseColorFactor": [
          0,
          0,
          0,
          1
        ],
        "metallicFactor": 0,
        "roughnessFactor": 0.78091097699793355
      }
    }
  ],
  "meshes": [
    {
      "name": "Cube_BlackMetal_0",
      "primitives": [
        {
          "attributes": {
            "NORMAL": 1,
            "POSITION": 0,
            "TANGENT": 2,
            "TEXCOORD_0": 3
          },
          "indices": 4,
          "material": 0,
          "mode": 4
        }
      ]
    },
    {
      "name": "Cube_BlackMetal.002_0",
      "primitives": [
        {
          "attributes": {
            "NORMAL": 6,
            "POSITION": 5,
            "TANGENT": 7,
            "TEXCOORD_0": 8
          },
          "indices": 9,
          "material": 1,
          "mode": 4
        }
      ]
    },
    {
      "name": "Cube_Red_0",
      "primitives": [
        {
          "attributes": {
            "NORMAL": 11,
            "POSITION": 10,
            "TANGENT": 12,
            "TEXCOORD_0": 13
          },
          "indices": 14,
          "material": 2,
          "mode": 4
        }
      ]
    },
    {
      "name": "Cube_Metal02_0",
      "primitives": [
        {
          "attributes": {
            "NORMAL": 16,
            "POSITION": 15,
            "TANGENT": 17,
            "TEXCOORD_0": 18
          },
          "indices": 19,
          "material": 3,
          "mode": 4
        }
      ]
    },
    {
      "name": "Cube_Outline_0",
      "primitives": [
        {
          "attributes": {
            "NORMAL": 21,
            "POSITION": 20,
            "TANGENT": 22,
            "TEXCOORD_0": 23
          },
          "indices": 24,
          "material": 4,
          "mode": 4
        }
      ]
    }
  ],
  "nodes": [
    {
      "children": [
        1
      ],
      "name": "RootNode (gltf orientation matrix)",
      "rotation": [
        -0.70710678118654746,
        -0,
        -0,
        0.70710678118654757
      ]
    },
    {
      "children": [
        2
      ],
      "matrix": [
        0.80842363834381104,
        -2.7755575615628914e-17,
        0.58860105276107788,
        0,
        0.29074665904045105,
        0.86948341131210327,
        -0.39933070540428162,
        0,
        -0.51177883148193359,
        0.49396216869354248,
        0.7029109001159668,
        0,
        64.7388916015625,
        -86.331047058105469,
        127.83023071289062,
        1
      ],
      "name": "RootNode (model correction matrix)"
    },
    {
      "children": [
        3
      ],
      "matrix": [
        1,
        0,
        0,
        0,
        0,
        0,
        1,
        0,
        0,
        -1,
        0,
        0,
        0,
        0,
        0,
        1
      ],
      "name": "f233fc680b5a420e8f31e023302bf28f.fbx"
    },
    {
      "children": [
        4
      ],
      "name": "RootNode"
    },
    {
      "children": [
        5,
        6,
        7,
        8,
        9
      ],
      "matrix": [
        100,
        0,
        0,
        0,
        0,
        -1.6292067939183141e-05,
        -99.999999999998678,
        0,
        0,
        99.999999999998678,
        -1.6292067939183141e-05,
        0,
        0,
        439.44696044921875,
        0,
        1
      ],
      "name": "Cube"
    },
    {
      "mesh": 0,
      "name": "Cube_BlackMetal_0"
    },
    {
      "mesh": 1,
      "name": "Cube_BlackMetal.002_0"
    },
    {
      "mesh": 2,
      "name": "Cube_Red_0"
    },
    {
      "mesh": 3,
      "name": "Cube_Metal02_0"
    },
    {
      "mesh": 4,
      "name": "Cube_Outline_0"
    }
  ],
  "scene": 0,
  "scenes": [
    {
      "name": "OSG_Scene",
      "nodes": [
        0
      ]
    }
  ]
}

